<svg width="295" height="401" viewBox="0 0 295 401" fill="none" xmlns="http://www.w3.org/2000/svg">
<g clip-path="url(#clip0_201_228)">
<path d="M284.789 356.392C294.055 366.504 298.782 389.092 291.407 396.18C279.966 408.655 255.761 394.29 248.67 385.028C239.309 373.782 230.8 353.368 233.447 343.35C229.003 344.484 224.748 344.673 220.872 342.688C215.577 340.326 213.497 335.978 210.471 332.292C216.617 330.119 222.857 328.417 229.287 331.631C229.854 332.009 230.422 332.292 230.989 332.67C230.8 332.292 230.516 331.82 230.327 331.347C227.68 324.732 229.949 318.683 232.691 312.729C236.095 316.037 240.255 318.494 242.051 323.976C243.753 328.323 242.997 332.859 241.295 337.396C251.128 335.317 267.58 339.002 284.41 355.825C284.505 356.014 284.599 356.203 284.789 356.392Z" fill="#1F7196"/>
<path d="M156.388 313.58C162.723 320.479 165.938 335.978 160.926 340.704C153.079 349.209 136.627 339.475 131.805 333.048C125.47 325.393 119.607 311.406 121.404 304.601C118.378 305.357 115.447 305.546 112.8 304.129C109.112 302.522 107.789 299.592 105.708 297.041C109.963 295.528 114.123 294.394 118.567 296.663C118.946 296.946 119.324 297.135 119.702 297.419C119.513 297.135 119.418 296.852 119.229 296.568C117.433 292.032 118.946 287.873 120.837 283.809C123.2 286.078 125.942 287.779 127.266 291.559C128.495 294.489 127.928 297.608 126.699 300.726C133.412 299.309 144.664 301.86 156.104 313.296C156.199 313.391 156.293 313.485 156.388 313.58Z" fill="#1F7196"/>
<path d="M195.721 51.8852C200.449 57.0831 202.907 68.8022 199.125 72.3935C193.263 78.8201 180.782 71.4484 177.095 66.6285C172.272 60.8635 167.923 50.2785 169.247 45.0805C166.978 45.6476 164.708 45.7421 162.723 44.7025C159.981 43.4739 158.941 41.3002 157.333 39.3155C160.548 38.1814 163.763 37.3308 166.978 39.032C167.261 39.221 167.545 39.41 167.829 39.599C167.734 39.41 167.639 39.1265 167.545 38.9375C166.221 35.5352 167.356 32.4164 168.774 29.2976C170.571 30.9988 172.651 32.2274 173.596 35.1571C174.542 37.4253 174.069 39.6936 173.218 42.0563C178.229 41.0167 186.739 42.9068 195.437 51.6016C195.532 51.7907 195.627 51.8852 195.721 51.8852Z" fill="#1F7196"/>
<path d="M72.6154 123.145C76.7757 127.681 78.8558 137.699 75.5465 140.912C70.4407 146.488 59.6619 140.062 56.5417 135.903C52.3814 130.894 48.5994 121.822 49.734 117.285C47.7484 117.758 45.8574 117.852 44.1555 117.002C41.7917 115.962 40.8461 114.072 39.5224 112.371C42.2644 111.426 45.0064 110.67 47.9375 112.087C48.2212 112.276 48.4103 112.371 48.6939 112.56C48.5994 112.371 48.5048 112.182 48.4103 111.993C47.2757 109.063 48.2212 106.322 49.4503 103.676C50.9631 105.188 52.8542 106.228 53.6106 108.685C54.367 110.575 53.9888 112.654 53.2324 114.639C57.5817 113.694 64.9567 115.395 72.4263 122.861C72.5208 122.956 72.5208 123.05 72.6154 123.145Z" fill="#1F7196"/>
<path d="M284.883 132.312C289.043 136.848 291.123 146.866 287.814 150.08C282.708 155.656 271.929 149.229 268.809 145.071C264.649 140.062 260.867 130.989 262.002 126.453C260.016 126.925 258.125 127.02 256.423 126.169C254.059 125.129 253.114 123.239 251.79 121.538C254.532 120.593 257.274 119.837 260.205 121.255C260.489 121.444 260.678 121.538 260.961 121.727C260.867 121.538 260.772 121.349 260.678 121.16C259.543 118.23 260.489 115.49 261.718 112.843C263.231 114.355 265.122 115.395 265.878 117.852C266.635 119.742 266.256 121.822 265.5 123.806C269.849 122.861 277.224 124.562 284.694 132.029C284.788 132.123 284.883 132.218 284.883 132.312Z" fill="#1F7196"/>
<path d="M33.0929 19.4688C37.2532 24.0052 39.3333 34.0231 36.024 37.2364C30.9183 42.8124 20.1394 36.3858 17.0192 32.2274C12.859 27.2185 9.07689 18.1457 10.2115 13.6092C8.22593 14.0818 6.33491 14.1763 4.63298 13.3257C2.2692 12.2861 1.3237 10.3959 -2.28882e-05 8.69479C2.74197 7.74971 5.48394 6.99364 8.32048 8.41127C8.60413 8.60028 8.79325 8.69479 9.07691 8.88381C8.98236 8.69479 8.88779 8.50577 8.79324 8.31676C7.65862 5.38699 8.60414 2.64624 9.83331 0C11.3461 1.51214 13.1426 2.55173 13.9936 5.00896C14.75 6.89913 14.3718 8.97832 13.6154 10.963C17.9647 10.0179 25.3397 11.7191 32.8093 19.1852C32.9984 19.2798 32.9984 19.3743 33.0929 19.4688Z" fill="#1F7196"/>
<path d="M46.425 275.304C50.5852 279.84 52.6653 289.858 49.3561 293.071C44.2503 298.647 33.4714 292.221 30.3512 288.062C26.191 283.053 22.4089 273.98 23.5435 269.444C21.558 269.917 19.6669 270.011 17.965 269.161C15.6012 268.121 14.6557 266.231 13.332 264.53C16.074 263.585 18.816 262.828 21.6525 264.246C21.9362 264.435 22.1253 264.53 22.4089 264.719C22.3144 264.53 22.2198 264.341 22.1253 264.152C20.9907 261.222 21.9362 258.481 23.1653 255.835C24.6782 257.347 26.4746 258.387 27.3256 260.844C28.082 262.734 27.7038 264.813 26.9474 266.798C31.2967 265.853 38.6717 267.554 46.1413 275.02C46.2358 275.209 46.3304 275.209 46.425 275.304Z" fill="#1F7196"/>
<path d="M185.699 189.395C192.034 196.294 195.249 211.794 190.237 216.519C182.39 225.025 165.938 215.291 161.116 208.864C154.781 201.209 148.918 187.222 150.715 180.417C147.689 181.173 144.758 181.362 142.111 179.944C138.423 178.338 137.1 175.408 135.019 172.856C139.274 171.344 143.435 170.21 147.878 172.478C148.257 172.762 148.635 172.951 149.013 173.234C148.919 172.951 148.729 172.667 148.54 172.384C146.744 167.847 148.257 163.689 150.148 159.625C152.511 161.893 155.253 163.594 156.577 167.375C157.806 170.304 157.239 173.423 156.01 176.542C162.723 175.124 173.975 177.676 185.415 189.112C185.51 189.206 185.604 189.301 185.699 189.395Z" fill="#1F7196"/>
</g>
<defs>
<clipPath id="clip0_201_228">
<rect width="401" height="295" fill="white" transform="translate(295) rotate(90)"/>
</clipPath>
</defs>
</svg>
