<svg width="295" height="401" viewBox="0 0 295 401" fill="none" xmlns="http://www.w3.org/2000/svg">
<g clip-path="url(#clip0_201_239)">
<path d="M10.2115 356.392C0.94544 366.504 -3.78212 389.092 3.59288 396.18C15.0336 408.655 39.2387 394.29 46.3301 385.028C55.6906 373.782 64.2002 353.368 61.5528 343.35C65.9967 344.484 70.2515 344.673 74.1281 342.688C79.423 340.326 81.5031 335.978 84.5288 332.292C78.3829 330.119 72.1426 328.417 65.7131 331.631C65.1458 332.009 64.5784 332.292 64.0111 332.67C64.2002 332.292 64.4839 331.82 64.673 331.347C67.3204 324.732 65.0512 318.683 62.3092 312.729C58.9054 316.037 54.7451 318.494 52.9486 323.976C51.2467 328.323 52.0031 332.859 53.7051 337.396C43.8717 335.317 27.4198 339.002 10.5897 355.825C10.4951 356.014 10.4006 356.203 10.2115 356.392Z" fill="#1F7196"/>
<path d="M138.612 313.58C132.277 320.479 129.062 335.978 134.074 340.704C141.921 349.209 158.373 339.475 163.195 333.048C169.53 325.393 175.393 311.406 173.596 304.601C176.622 305.357 179.553 305.546 182.2 304.129C185.888 302.522 187.211 299.592 189.292 297.041C185.037 295.528 180.877 294.394 176.433 296.663C176.054 296.946 175.676 297.135 175.298 297.419C175.487 297.135 175.582 296.852 175.771 296.568C177.567 292.032 176.054 287.873 174.163 283.809C171.8 286.078 169.058 287.779 167.734 291.559C166.505 294.489 167.072 297.608 168.301 300.726C161.588 299.309 150.336 301.86 138.896 313.296C138.801 313.391 138.707 313.485 138.612 313.58Z" fill="#1F7196"/>
<path d="M99.2788 51.8852C94.5513 57.0831 92.0929 68.8022 95.875 72.3935C101.737 78.8201 114.218 71.4484 117.905 66.6285C122.728 60.8635 127.077 50.2785 125.753 45.0805C128.022 45.6476 130.292 45.7421 132.277 44.7025C135.019 43.4739 136.059 41.3002 137.667 39.3155C134.452 38.1814 131.237 37.3308 128.022 39.032C127.739 39.221 127.455 39.41 127.171 39.599C127.266 39.41 127.361 39.1265 127.455 38.9375C128.779 35.5352 127.644 32.4164 126.226 29.2976C124.429 30.9988 122.349 32.2274 121.404 35.1571C120.458 37.4253 120.931 39.6936 121.782 42.0563C116.771 41.0167 108.261 42.9068 99.5625 51.6016C99.468 51.7907 99.3734 51.8852 99.2788 51.8852Z" fill="#1F7196"/>
<path d="M222.385 123.145C218.224 127.681 216.144 137.699 219.454 140.912C224.559 146.488 235.338 140.062 238.458 135.903C242.619 130.894 246.401 121.822 245.266 117.285C247.252 117.758 249.143 117.852 250.845 117.002C253.208 115.962 254.154 114.072 255.478 112.371C252.736 111.426 249.994 110.67 247.062 112.087C246.779 112.276 246.59 112.371 246.306 112.56C246.401 112.371 246.495 112.182 246.59 111.993C247.724 109.063 246.779 106.322 245.55 103.676C244.037 105.188 242.146 106.228 241.389 108.685C240.633 110.575 241.011 112.654 241.768 114.639C237.418 113.694 230.043 115.395 222.574 122.861C222.479 122.956 222.479 123.05 222.385 123.145Z" fill="#1F7196"/>
<path d="M10.117 132.312C5.95678 136.848 3.87665 146.866 7.18594 150.08C12.2917 155.656 23.0706 149.229 26.1908 145.071C30.351 140.062 34.1331 130.989 32.9984 126.453C34.984 126.925 36.875 127.02 38.577 126.169C40.9407 125.129 41.8863 123.239 43.21 121.538C40.468 120.593 37.726 119.837 34.7949 121.255C34.5113 121.444 34.3222 121.538 34.0385 121.727C34.1331 121.538 34.2276 121.349 34.3222 121.16C35.4568 118.23 34.5113 115.49 33.2821 112.843C31.7693 114.355 29.8782 115.395 29.1218 117.852C28.3654 119.742 28.7436 121.822 29.5 123.806C25.1507 122.861 17.7757 124.562 10.3061 132.029C10.2116 132.123 10.117 132.218 10.117 132.312Z" fill="#1F7196"/>
<path d="M261.907 19.4688C257.747 24.0052 255.667 34.0231 258.976 37.2364C264.082 42.8124 274.861 36.3858 277.981 32.2274C282.141 27.2185 285.923 18.1457 284.788 13.6092C286.774 14.0818 288.665 14.1763 290.367 13.3257C292.731 12.2861 293.676 10.3959 295 8.69479C292.258 7.74971 289.516 6.99364 286.68 8.41127C286.396 8.60028 286.207 8.69479 285.923 8.88381C286.018 8.69479 286.112 8.50577 286.207 8.31676C287.341 5.38699 286.396 2.64624 285.167 0C283.654 1.51214 281.857 2.55173 281.006 5.00896C280.25 6.89913 280.628 8.97832 281.385 10.963C277.035 10.0179 269.66 11.7191 262.191 19.1852C262.002 19.2798 262.002 19.3743 261.907 19.4688Z" fill="#1F7196"/>
<path d="M248.575 275.304C244.415 279.84 242.335 289.858 245.644 293.071C250.75 298.647 261.529 292.221 264.649 288.062C268.809 283.053 272.591 273.98 271.456 269.444C273.442 269.917 275.333 270.011 277.035 269.161C279.399 268.121 280.344 266.231 281.668 264.53C278.926 263.585 276.184 262.828 273.347 264.246C273.064 264.435 272.875 264.53 272.591 264.719C272.686 264.53 272.78 264.341 272.875 264.152C274.009 261.222 273.064 258.481 271.835 255.835C270.322 257.347 268.525 258.387 267.674 260.844C266.918 262.734 267.296 264.813 268.053 266.798C263.703 265.853 256.328 267.554 248.859 275.02C248.764 275.209 248.67 275.209 248.575 275.304Z" fill="#1F7196"/>
<path d="M109.301 189.395C102.966 196.294 99.7514 211.794 104.763 216.519C112.61 225.025 129.062 215.291 133.884 208.864C140.219 201.209 146.082 187.222 144.285 180.417C147.311 181.173 150.242 181.362 152.889 179.944C156.577 178.338 157.9 175.408 159.981 172.856C155.726 171.344 151.565 170.21 147.122 172.478C146.743 172.762 146.365 172.951 145.987 173.234C146.081 172.951 146.271 172.667 146.46 172.384C148.256 167.847 146.743 163.689 144.852 159.625C142.489 161.893 139.747 163.594 138.423 167.375C137.194 170.304 137.761 173.423 138.99 176.542C132.277 175.124 121.025 177.676 109.585 189.112C109.49 189.206 109.396 189.301 109.301 189.395Z" fill="#1F7196"/>
</g>
<defs>
<clipPath id="clip0_201_239">
<rect width="401" height="295" fill="white" transform="matrix(0 1 1 0 0 0)"/>
</clipPath>
</defs>
</svg>
