<svg width="175" height="166" viewBox="0 0 175 166" fill="none" xmlns="http://www.w3.org/2000/svg">
<g clip-path="url(#clip0_684_4618)">
<path d="M159.523 75.5056C164.291 74.9274 171.69 78.1825 172.209 81.7262C173.436 87.5247 164.416 91.4901 160.333 91.6224C155.223 91.9966 147.674 90.261 145.358 87.4666C144.776 88.9628 143.964 90.2128 142.61 90.9122C140.859 91.9384 139.197 91.6451 137.53 91.7557C138.162 89.5631 138.947 87.4399 141.171 86.2638C141.394 86.1793 141.591 86.0756 141.814 85.991C141.668 85.9679 141.475 85.9524 141.302 85.91C138.878 85.3161 137.616 83.4379 136.477 81.4444C138.113 81.1491 139.66 80.4651 141.587 81.0702C143.173 81.4712 144.312 82.6107 145.258 84.0193C146.667 80.7961 151.065 76.8628 159.284 75.4978C159.358 75.5094 159.431 75.521 159.523 75.5056Z" fill="white" fill-opacity="0.2"/>
<path d="M121.191 103.342C124.446 102.944 129.518 105.186 129.844 107.575C130.671 111.542 124.549 114.244 121.736 114.307C118.265 114.552 113.086 113.371 111.513 111.474C111.112 112.489 110.57 113.362 109.627 113.827C108.418 114.55 107.314 114.33 106.164 114.402C106.599 112.883 107.122 111.468 108.673 110.664C108.831 110.614 108.961 110.545 109.119 110.495C109 110.491 108.9 110.461 108.781 110.457C107.122 110.044 106.245 108.766 105.472 107.4C106.599 107.189 107.642 106.755 108.989 107.148C110.074 107.395 110.847 108.192 111.486 109.177C112.448 106.977 115.465 104.293 121.052 103.365C121.099 103.358 121.145 103.35 121.191 103.342Z" fill="white" fill-opacity="0.2"/>
<path d="M54.6185 38.8354C57.062 38.5483 60.902 40.2356 61.1557 42.0439C61.7941 45.0221 57.1533 47.0739 55.0293 47.142C52.405 47.3406 48.5033 46.4227 47.2914 44.987C46.9912 45.7486 46.5563 46.4139 45.856 46.7675C44.9478 47.2979 44.1167 47.1512 43.2239 47.2046C43.555 46.0583 43.9669 44.9697 45.1059 44.401C45.2175 44.3587 45.3291 44.3164 45.4407 44.2742C45.3676 44.2626 45.2675 44.2318 45.1944 44.2202C43.9554 43.904 43.2976 42.9457 42.6974 41.9066C43.5478 41.7416 44.3213 41.3996 45.3486 41.7272C46.1875 41.9201 46.7376 42.5167 47.2378 43.2403C47.9614 41.6017 50.2319 39.564 54.48 38.8584C54.5531 38.87 54.5993 38.8624 54.6185 38.8354Z" fill="white" fill-opacity="0.2"/>
<path d="M49.8721 88.4014C52.0116 88.141 55.2898 89.5894 55.532 91.1862C56.082 93.7757 52.0569 95.5355 50.2368 95.5768C47.9627 95.741 44.6074 94.9696 43.5456 93.7225C43.2761 94.3841 42.9182 94.9417 42.3295 95.253C41.5521 95.7143 40.821 95.5984 40.0668 95.6288C40.3555 94.6556 40.6981 93.7209 41.6986 93.1751C41.8102 93.1329 41.8757 93.0983 41.9872 93.056C41.9141 93.0444 41.841 93.0329 41.7679 93.0213C40.7021 92.7475 40.1135 91.92 39.6095 91.031C40.3483 90.9083 41.0294 90.5817 41.8836 90.8668C42.5762 91.0365 43.0918 91.5677 43.5034 92.1874C44.1193 90.7565 46.105 89.0033 49.7528 88.3975C49.799 88.3898 49.8259 88.4091 49.8721 88.4014Z" fill="white" fill-opacity="0.2"/>
<path d="M95.6843 29.8329C97.8237 29.5725 101.102 31.0209 101.344 32.6177C101.894 35.2072 97.869 36.967 96.049 37.0083C93.7748 37.1724 90.4196 36.4011 89.3577 35.154C89.0883 35.8155 88.7303 36.3732 88.1416 36.6845C87.3642 37.1457 86.6332 37.0299 85.879 37.0603C86.1677 36.0871 86.5103 35.1524 87.5108 34.6066C87.6224 34.5643 87.6878 34.5298 87.7994 34.4875C87.7263 34.4759 87.6532 34.4643 87.5801 34.4527C86.5142 34.179 85.9256 33.3515 85.4216 32.4625C86.1604 32.3398 86.8415 32.0131 87.6957 32.2983C88.3883 32.468 88.9039 32.9992 89.3155 33.6189C89.9314 32.188 91.9171 30.4348 95.565 29.829C95.6111 29.8213 95.6573 29.8136 95.6843 29.8329Z" fill="white" fill-opacity="0.2"/>
<path d="M12.2833 78.5349C14.4227 78.2745 17.7009 79.7229 17.9432 81.3197C18.4931 83.9093 14.468 85.669 12.6479 85.7103C10.3738 85.8745 7.01856 85.1031 5.95669 83.856C5.68726 84.5176 5.32934 85.0753 4.74058 85.3865C3.96325 85.8478 3.23216 85.732 2.47797 85.7623C2.76668 84.7891 3.10925 83.8544 4.09053 83.3356C4.20212 83.2933 4.26754 83.2587 4.37913 83.2165C4.30603 83.2049 4.23291 83.1933 4.15981 83.1817C3.09397 82.908 2.50535 82.0805 2.00138 81.1914C2.74019 81.0687 3.40206 80.769 4.2755 81.0273C4.9681 81.197 5.48365 81.7282 5.8953 82.3478C6.51114 80.917 8.49686 79.1637 12.1447 78.5579C12.2101 78.5233 12.2371 78.5426 12.2833 78.5349Z" fill="white" fill-opacity="0.2"/>
<path d="M87.9039 126.854C90.0433 126.593 93.3215 128.042 93.5638 129.638C94.1137 132.228 90.0886 133.988 88.2685 134.029C85.9944 134.193 82.6392 133.422 81.5773 132.175C81.3079 132.836 80.9499 133.394 80.3612 133.705C79.5838 134.166 78.8528 134.051 78.0986 134.081C78.3873 133.108 78.7299 132.173 79.7111 131.654C79.8227 131.612 79.8881 131.577 79.9997 131.535C79.9266 131.524 79.8535 131.512 79.7804 131.5C78.7146 131.227 78.126 130.399 77.622 129.51C78.3608 129.387 79.0227 129.088 79.8961 129.346C80.5887 129.516 81.1043 130.047 81.5159 130.666C82.1317 129.236 84.1175 127.482 87.7653 126.877C87.8384 126.888 87.8577 126.861 87.9039 126.854Z" fill="white" fill-opacity="0.2"/>
<path d="M91.7663 69.7002C95.0216 69.302 100.093 71.544 100.42 73.9333C101.246 77.9003 95.1242 80.6015 92.3113 80.6654C88.8405 80.9096 83.6614 79.7294 82.0878 77.8318C81.6875 78.8473 81.1449 79.7203 80.2021 80.1853C78.9938 80.9079 77.8895 80.688 76.7389 80.7604C77.1739 79.241 77.6974 77.8255 79.2482 77.0223C79.406 76.9724 79.5368 76.9032 79.6946 76.8532C79.5945 76.8224 79.4752 76.8185 79.356 76.8146C77.6976 76.402 76.8204 75.1242 76.0471 73.758C77.1746 73.547 78.2174 73.1128 79.5641 73.506C80.6492 73.7529 81.4226 74.5497 82.0612 75.535C83.0234 73.3348 86.0405 70.6511 91.6277 69.7232C91.6739 69.7156 91.7201 69.7079 91.7663 69.7002Z" fill="white" fill-opacity="0.2"/>
</g>
<defs>
<clipPath id="clip0_684_4618">
<rect width="140.469" height="103.242" fill="white" transform="translate(60.0371) rotate(35.5573)"/>
</clipPath>
</defs>
</svg>
