<svg width="365" height="303" viewBox="0 0 365 303" fill="none" xmlns="http://www.w3.org/2000/svg">
<path d="M317.05 10.8314C327.75 1.03142 351.65 -3.96858 359.15 3.83142C372.35 15.9314 357.15 41.5314 347.35 49.0314C335.45 58.9314 313.85 67.9314 303.25 65.1314C304.45 69.8314 304.65 74.3314 302.55 78.4314C300.05 84.0314 295.45 86.2314 291.55 89.4314C289.25 82.9314 287.45 76.3314 290.85 69.5314C291.25 68.9314 291.55 68.3314 291.95 67.7314C291.55 67.9314 291.05 68.2314 290.55 68.4314C283.55 71.2314 277.15 68.8314 270.85 65.9314C274.35 62.3314 276.95 57.9314 282.75 56.0314C287.35 54.2314 292.15 55.0314 296.95 56.8314C294.75 46.4314 298.65 29.0314 316.45 11.2314C316.65 11.1314 316.85 11.0314 317.05 10.8314Z" fill="#1F7196"/>
<path d="M54.8998 95.4314C60.3998 90.4314 72.7998 87.8314 76.5998 91.8314C83.3998 98.0314 75.5998 111.231 70.4998 115.131C64.3998 120.231 53.1998 124.831 47.6998 123.431C48.2998 125.831 48.3998 128.231 47.2998 130.331C45.9998 133.231 43.6998 134.331 41.5998 136.031C40.3998 132.631 39.4998 129.231 41.2998 125.831C41.4998 125.531 41.6998 125.231 41.8998 124.931C41.6998 125.031 41.3998 125.131 41.1998 125.231C37.5998 126.631 34.2998 125.431 30.9998 123.931C32.7998 122.031 34.0998 119.831 37.1998 118.831C39.5998 117.831 41.9998 118.331 44.4998 119.231C43.3998 113.931 45.3998 104.931 54.5998 95.7314C54.7998 95.6314 54.8998 95.5314 54.8998 95.4314Z" fill="#1F7196"/>
<path d="M255.942 199.831C261.442 194.831 273.842 192.231 277.642 196.231C284.442 202.431 276.642 215.631 271.542 219.531C265.442 224.631 254.242 229.231 248.742 227.831C249.342 230.231 249.442 232.631 248.342 234.731C247.042 237.631 244.742 238.731 242.642 240.431C241.442 237.031 240.542 233.631 242.342 230.231C242.542 229.931 242.742 229.631 242.942 229.331C242.742 229.431 242.442 229.531 242.242 229.631C238.642 231.031 235.342 229.831 232.042 228.331C233.842 226.431 235.142 224.231 238.242 223.231C240.642 222.231 243.042 222.731 245.542 223.631C244.442 218.331 246.442 209.331 255.642 200.131C255.842 200.031 255.942 199.931 255.942 199.831Z" fill="#1F7196"/>
<path d="M130.3 225.631C135.1 221.231 145.7 219.031 149.1 222.531C155 227.931 148.2 239.331 143.8 242.631C138.5 247.031 128.9 251.031 124.1 249.831C124.6 251.931 124.7 253.931 123.8 255.731C122.7 258.231 120.7 259.231 118.9 260.631C117.9 257.731 117.1 254.831 118.6 251.731C118.8 251.431 118.9 251.231 119.1 250.931C118.9 251.031 118.7 251.131 118.5 251.231C115.4 252.431 112.5 251.431 109.7 250.131C111.3 248.531 112.4 246.531 115 245.731C117 244.931 119.2 245.331 121.3 246.131C120.3 241.531 122.1 233.731 130 225.831C130.1 225.731 130.2 225.731 130.3 225.631Z" fill="#1F7196"/>
<path d="M171.6 20.2623C176.4 15.8623 187 13.6623 190.4 17.1623C196.3 22.5623 189.5 33.9623 185.1 37.2623C179.8 41.6623 170.2 45.6623 165.4 44.4623C165.9 46.5623 166 48.5623 165.1 50.3623C164 52.8623 162 53.8623 160.2 55.2623C159.2 52.3623 158.4 49.4623 159.9 46.3623C160.1 46.0623 160.2 45.8623 160.4 45.5623C160.2 45.6623 160 45.7623 159.8 45.8623C156.7 47.0623 153.8 46.0623 151 44.7623C152.6 43.1623 153.7 41.1623 156.3 40.3623C158.3 39.5623 160.5 39.9623 162.6 40.7623C161.6 36.1623 163.4 28.3623 171.3 20.4623C171.4 20.3623 171.5 20.2623 171.6 20.2623Z" fill="#1F7196"/>
<path d="M20.5998 267.431C25.3998 263.031 35.9998 260.831 39.3998 264.331C45.2998 269.731 38.4998 281.131 34.0998 284.431C28.7998 288.831 19.1998 292.831 14.3998 291.631C14.8998 293.731 14.9998 295.731 14.0998 297.531C12.9998 300.031 10.9998 301.031 9.19976 302.431C8.19976 299.531 7.39976 296.631 8.89976 293.631C9.09976 293.331 9.19976 293.131 9.39976 292.831C9.19976 292.931 8.99976 293.031 8.79976 293.131C5.69976 294.331 2.79976 293.331 -0.000244141 292.031C1.59976 290.431 2.69976 288.531 5.29976 287.631C7.29976 286.831 9.49976 287.231 11.5998 288.031C10.5998 283.431 12.3998 275.631 20.2998 267.731C20.3998 267.531 20.4998 267.531 20.5998 267.431Z" fill="#1F7196"/>
<path d="M200.4 106.031C207.7 99.3312 224.1 95.9312 229.1 101.231C238.1 109.531 227.8 126.931 221 132.031C212.9 138.731 198.1 144.931 190.9 143.031C191.7 146.231 191.9 149.331 190.4 152.131C188.7 156.031 185.6 157.431 182.9 159.631C181.3 155.131 180.1 150.731 182.5 146.031C182.8 145.631 183 145.231 183.3 144.831C183 144.931 182.7 145.131 182.4 145.331C177.6 147.231 173.2 145.631 168.9 143.631C171.3 141.131 173.1 138.231 177.1 136.831C180.2 135.531 183.5 136.131 186.8 137.431C185.3 130.331 188 118.431 200.1 106.331C200.2 106.231 200.3 106.131 200.4 106.031Z" fill="#1F7196"/>
</svg>
