<svg width="335" height="289" viewBox="0 0 335 289" fill="none" xmlns="http://www.w3.org/2000/svg">
<g clip-path="url(#clip0_684_4732)">
<path d="M302.857 87.9711C311.72 84.09 327.883 86.0785 330.94 92.6145C336.671 103.09 321.568 115.973 313.768 118.597C304.126 122.283 288.554 123.313 282.464 119.265C282.211 122.489 281.369 125.372 279.161 127.507C276.378 130.502 273.001 130.901 269.851 132.081C269.797 127.484 270.08 122.932 273.689 119.373C274.071 119.08 274.389 118.766 274.771 118.474C274.476 118.514 274.095 118.596 273.737 118.614C268.715 118.874 265.191 115.983 261.838 112.797C264.822 111.279 267.41 109.062 271.48 109.111C274.771 108.965 277.629 110.503 280.272 112.672C281.121 105.636 287.326 95.4956 302.392 88.0944C302.54 88.0743 302.687 88.0543 302.857 87.9711Z" fill="#486D95"/>
<path d="M245.047 163.913C251.096 161.256 262.181 162.64 264.198 167.061C268.094 174.235 257.849 182.998 252.459 184.753C245.904 187.237 235.227 187.964 231.09 185.216C230.907 187.407 230.366 189.406 228.817 190.85C226.905 192.945 224.647 193.162 222.469 193.969C222.427 190.785 222.616 187.75 225.142 185.301C225.417 185.113 225.63 184.904 225.905 184.716C225.673 184.778 225.462 184.776 225.229 184.838C221.79 185.004 219.357 183.047 217.072 180.86C219.125 179.799 220.885 178.356 223.712 178.334C225.948 178.181 227.903 179.269 229.706 180.8C230.287 175.997 234.551 169.069 244.793 164.038C244.877 163.996 244.962 163.955 245.047 163.913Z" fill="#486D95"/>
<path d="M79.1864 78.071C83.7341 76.0996 92.1216 77.1276 93.6601 80.4695C96.6193 85.8452 88.8557 92.4958 84.7971 93.8592C79.849 95.7646 71.7889 96.2568 68.6179 94.1898C68.4804 95.8333 68.0273 97.3692 66.8811 98.4576C65.4366 100.008 63.7479 100.207 62.0565 100.828C62.0303 98.424 62.1935 96.0849 64.0613 94.3268C64.252 94.1806 64.4428 94.0343 64.6336 93.888C64.4859 93.9081 64.275 93.9066 64.1272 93.9267C61.5533 94.0353 59.7282 92.5679 57.9675 90.9112C59.5126 90.0997 60.8065 88.9912 62.9787 89.0274C64.7089 88.9129 66.1165 89.7449 67.5012 90.8508C67.9468 87.2698 71.1454 82.0211 78.9324 78.1958C79.0802 78.1757 79.1649 78.1341 79.1864 78.071Z" fill="#486D95"/>
<path d="M98.7796 176.455C102.756 174.712 109.921 175.605 111.315 178.545C113.878 183.222 107.133 188.952 103.645 190.088C99.3529 191.724 92.4319 192.182 89.6598 190.391C89.5237 191.824 89.1566 193.108 88.2013 194.05C86.9691 195.391 85.4913 195.591 84.0538 196.087C84.0463 194.042 84.1651 192.04 85.7789 190.407C85.9697 190.26 86.0759 190.156 86.2667 190.009C86.1189 190.03 85.9711 190.05 85.8233 190.07C83.6082 190.16 81.9925 188.905 80.5045 187.482C81.8587 186.816 82.9834 185.791 84.7969 185.846C86.2316 185.771 87.5344 186.497 88.6881 187.454C89.0463 184.336 91.8605 179.802 98.5472 176.517C98.6318 176.475 98.6949 176.497 98.7796 176.455Z" fill="#486D95"/>
<path d="M153.195 36.8814C157.172 35.138 164.337 36.031 165.731 38.9712C168.294 43.6484 161.549 49.3785 158.061 50.5139C153.769 52.1497 146.848 52.6077 144.076 50.8175C143.94 52.2502 143.573 53.5337 142.617 54.4759C141.385 55.8167 139.907 56.0172 138.47 56.5133C138.462 54.4681 138.581 52.466 140.195 50.8327C140.386 50.6865 140.492 50.5818 140.683 50.4355C140.535 50.4556 140.387 50.4757 140.239 50.4957C138.024 50.5858 136.408 49.3306 134.92 47.9077C136.275 47.2425 137.399 46.2172 139.213 46.2719C140.647 46.1975 141.95 46.9234 143.104 47.8802C143.462 44.7623 146.276 40.2278 152.963 36.943C153.048 36.9014 153.132 36.8599 153.195 36.8814Z" fill="#486D95"/>
<path d="M20.5336 179.223C24.5104 177.479 31.6754 178.372 33.069 181.313C35.6321 185.99 28.887 191.72 25.3994 192.855C21.107 194.491 14.186 194.949 11.4138 193.159C11.2778 194.592 10.9107 195.875 9.95529 196.817C8.72308 198.158 7.24536 198.359 5.80785 198.855C5.80037 196.81 5.91914 194.807 7.51143 193.237C7.70222 193.091 7.80838 192.986 7.99917 192.84C7.8514 192.86 7.70362 192.88 7.55585 192.9C5.34067 192.99 3.72499 191.735 2.23698 190.312C3.59125 189.647 4.69439 188.685 6.52939 188.676C7.96409 188.602 9.26692 189.328 10.4206 190.285C10.7788 187.167 13.593 182.632 20.2797 179.348C20.3858 179.243 20.449 179.264 20.5336 179.223Z" fill="#486D95"/>
<path d="M194.461 228.583C198.438 226.84 205.603 227.733 206.997 230.673C209.56 235.35 202.815 241.08 199.327 242.216C195.035 243.852 188.114 244.31 185.342 242.519C185.205 243.952 184.838 245.236 183.883 246.178C182.651 247.519 181.173 247.719 179.736 248.215C179.728 246.17 179.847 244.168 181.439 242.598C181.63 242.452 181.736 242.347 181.927 242.201C181.779 242.221 181.631 242.241 181.484 242.261C179.268 242.351 177.653 241.096 176.165 239.673C177.519 239.007 178.622 238.045 180.457 238.037C181.892 237.963 183.195 238.688 184.348 239.645C184.706 236.527 187.521 231.993 194.207 228.708C194.355 228.688 194.377 228.625 194.461 228.583Z" fill="#486D95"/>
<path d="M168.761 116.073C174.811 113.416 185.896 114.8 187.912 119.221C191.809 126.395 181.563 135.158 176.173 136.913C169.618 139.397 158.941 140.124 154.805 137.376C154.621 139.567 154.081 141.566 152.532 143.01C150.619 145.105 148.361 145.322 146.184 146.129C146.141 142.945 146.33 139.91 148.856 137.461C149.132 137.273 149.344 137.064 149.62 136.876C149.409 136.875 149.176 136.936 148.944 136.998C145.505 137.164 143.071 135.207 140.787 133.02C142.84 131.959 144.6 130.516 147.426 130.494C149.663 130.34 151.617 131.429 153.421 132.96C154.001 128.157 158.266 121.229 168.507 116.198C168.592 116.156 168.677 116.115 168.761 116.073Z" fill="#486D95"/>
</g>
<defs>
<clipPath id="clip0_684_4732">
<rect width="283" height="208" fill="white" transform="translate(67.1143) rotate(18.8242)"/>
</clipPath>
</defs>
</svg>
