<svg width="22" height="23" viewBox="0 0 22 23" fill="none" xmlns="http://www.w3.org/2000/svg">
<path fill-rule="evenodd" clip-rule="evenodd" d="M6.465 0.496176C7.638 0.442176 8.012 0.430176 11 0.430176C13.988 0.430176 14.362 0.443176 15.534 0.496176C16.706 0.549176 17.506 0.736176 18.206 1.00718C18.939 1.28418 19.604 1.71718 20.154 2.27718C20.714 2.82618 21.146 3.49018 21.422 4.22418C21.694 4.92418 21.88 5.72418 21.934 6.89418C21.988 8.06918 22 8.44318 22 11.4302C22 14.4182 21.987 14.7922 21.934 15.9652C21.881 17.1352 21.694 17.9352 21.422 18.6352C21.146 19.3693 20.7133 20.0344 20.154 20.5842C19.604 21.1442 18.939 21.5762 18.206 21.8522C17.506 22.1242 16.706 22.3102 15.536 22.3642C14.362 22.4182 13.988 22.4302 11 22.4302C8.012 22.4302 7.638 22.4172 6.465 22.3642C5.295 22.3112 4.495 22.1242 3.795 21.8522C3.06092 21.5761 2.39582 21.1434 1.846 20.5842C1.28638 20.0348 0.853315 19.3701 0.577 18.6362C0.306 17.9362 0.12 17.1362 0.066 15.9662C0.012 14.7912 0 14.4172 0 11.4302C0 8.44218 0.013 8.06818 0.066 6.89618C0.119 5.72418 0.306 4.92418 0.577 4.22418C0.853723 3.49026 1.28712 2.82549 1.847 2.27618C2.39604 1.71668 3.06047 1.28362 3.794 1.00718C4.494 0.736176 5.294 0.550176 6.464 0.496176H6.465ZM15.445 2.47618C14.285 2.42318 13.937 2.41218 11 2.41218C8.063 2.41218 7.715 2.42318 6.555 2.47618C5.482 2.52518 4.9 2.70418 4.512 2.85518C3.999 3.05518 3.632 3.29218 3.247 3.67718C2.88205 4.03223 2.60118 4.46446 2.425 4.94218C2.274 5.33018 2.095 5.91218 2.046 6.98518C1.993 8.14518 1.982 8.49318 1.982 11.4302C1.982 14.3672 1.993 14.7152 2.046 15.8752C2.095 16.9482 2.274 17.5302 2.425 17.9182C2.601 18.3952 2.882 18.8282 3.247 19.1832C3.602 19.5482 4.035 19.8292 4.512 20.0052C4.9 20.1562 5.482 20.3352 6.555 20.3842C7.715 20.4372 8.062 20.4482 11 20.4482C13.938 20.4482 14.285 20.4372 15.445 20.3842C16.518 20.3352 17.1 20.1562 17.488 20.0052C18.001 19.8052 18.368 19.5682 18.753 19.1832C19.118 18.8282 19.399 18.3952 19.575 17.9182C19.726 17.5302 19.905 16.9482 19.954 15.8752C20.007 14.7152 20.018 14.3672 20.018 11.4302C20.018 8.49318 20.007 8.14518 19.954 6.98518C19.905 5.91218 19.726 5.33018 19.575 4.94218C19.375 4.42918 19.138 4.06218 18.753 3.67718C18.3979 3.31225 17.9657 3.03139 17.488 2.85518C17.1 2.70418 16.518 2.52518 15.445 2.47618ZM9.595 14.8212C10.3797 15.1478 11.2534 15.1919 12.0669 14.9459C12.8805 14.6999 13.5834 14.1791 14.0556 13.4724C14.5278 12.7657 14.7401 11.917 14.656 11.0713C14.572 10.2255 14.197 9.43515 13.595 8.83518C13.2112 8.45165 12.7472 8.15799 12.2363 7.97532C11.7255 7.79266 11.1804 7.72554 10.6405 7.77879C10.1006 7.83205 9.57915 8.00435 9.1138 8.28331C8.64845 8.56226 8.25074 8.94092 7.9493 9.39203C7.64786 9.84313 7.45019 10.3555 7.37052 10.8921C7.29084 11.4288 7.33115 11.9765 7.48854 12.4957C7.64593 13.0149 7.91648 13.4928 8.28072 13.8949C8.64496 14.297 9.09382 14.6134 9.595 14.8212ZM7.002 7.43218C7.52702 6.90715 8.15032 6.49068 8.8363 6.20654C9.52228 5.9224 10.2575 5.77615 11 5.77615C11.7425 5.77615 12.4777 5.9224 13.1637 6.20654C13.8497 6.49068 14.473 6.90715 14.998 7.43218C15.523 7.9572 15.9395 8.5805 16.2236 9.26647C16.5078 9.95245 16.654 10.6877 16.654 11.4302C16.654 12.1727 16.5078 12.9079 16.2236 13.5939C15.9395 14.2799 15.523 14.9032 14.998 15.4282C13.9377 16.4885 12.4995 17.0842 11 17.0842C9.50046 17.0842 8.06234 16.4885 7.002 15.4282C5.94166 14.3678 5.34597 12.9297 5.34597 11.4302C5.34597 9.93063 5.94166 8.49251 7.002 7.43218ZM17.908 6.61818C18.0381 6.49544 18.1423 6.34786 18.2143 6.18415C18.2863 6.02044 18.3248 5.84394 18.3274 5.66511C18.33 5.48627 18.2967 5.30872 18.2295 5.14299C18.1622 4.97725 18.0624 4.82669 17.936 4.70021C17.8095 4.57374 17.6589 4.47393 17.4932 4.40669C17.3275 4.33945 17.1499 4.30615 16.9711 4.30876C16.7922 4.31137 16.6157 4.34983 16.452 4.42187C16.2883 4.49391 16.1407 4.59807 16.018 4.72818C15.7793 4.9812 15.6486 5.3173 15.6537 5.66511C15.6588 6.01291 15.7992 6.34505 16.0452 6.59102C16.2911 6.83698 16.6233 6.9774 16.9711 6.98247C17.3189 6.98755 17.655 6.85687 17.908 6.61818Z" fill="white"/>
</svg>
