<svg width="24" height="23" viewBox="0 0 24 23" fill="none" xmlns="http://www.w3.org/2000/svg">
<path d="M19.3627 9.29325C19.4475 9.29033 19.5319 9.30449 19.611 9.33489C19.6901 9.3653 19.7623 9.41132 19.8233 9.47021C19.8842 9.5291 19.9327 9.59967 19.9658 9.67769C19.9989 9.75572 20.016 9.83961 20.016 9.92438C20.016 10.0091 19.9989 10.093 19.9658 10.1711C19.9327 10.2491 19.8842 10.3196 19.8233 10.3785C19.7623 10.4374 19.6901 10.4835 19.611 10.5139C19.5319 10.5443 19.4475 10.5584 19.3627 10.5555H17.6085V11.6805H19.3627C19.448 11.6763 19.5331 11.6895 19.6131 11.7193C19.6931 11.749 19.7662 11.7947 19.828 11.8535C19.8897 11.9124 19.9389 11.9832 19.9725 12.0616C20.0062 12.14 20.0235 12.2244 20.0235 12.3098C20.0235 12.3951 20.0062 12.4795 19.9725 12.5579C19.9389 12.6363 19.8897 12.7071 19.828 12.766C19.7662 12.8248 19.6931 12.8705 19.6131 12.9002C19.5331 12.93 19.448 12.9432 19.3627 12.939H16.98C16.8134 12.9384 16.6539 12.8719 16.5362 12.7539C16.4186 12.636 16.3524 12.4763 16.3522 12.3098V7.53975C16.3522 7.1925 16.6335 6.9075 16.98 6.9075H19.3672C19.5292 6.91587 19.6817 6.98622 19.7932 7.10398C19.9047 7.22173 19.9666 7.37787 19.9662 7.54004C19.9657 7.7022 19.9028 7.85797 19.7906 7.97506C19.6784 8.09215 19.5255 8.1616 19.3635 8.169H17.6093V9.294L19.3627 9.29325ZM15.5123 12.309C15.5109 12.476 15.4436 12.6358 15.325 12.7535C15.2065 12.8712 15.0463 12.9373 14.8793 12.9375C14.7803 12.9385 14.6826 12.9164 14.5937 12.8731C14.5048 12.8297 14.4272 12.7663 14.367 12.6877L11.9258 9.3675V12.3082C11.9258 12.4751 11.8595 12.6352 11.7414 12.7532C11.6234 12.8712 11.4634 12.9375 11.2965 12.9375C11.1296 12.9375 10.9696 12.8712 10.8516 12.7532C10.7335 12.6352 10.6672 12.4751 10.6672 12.3082V7.53825C10.6672 7.269 10.8435 7.0275 11.097 6.94125C11.1596 6.91914 11.2256 6.90822 11.292 6.909C11.487 6.909 11.667 7.01475 11.7878 7.16325L14.2485 10.491V7.53825C14.2485 7.191 14.5297 6.906 14.8777 6.906C15.2257 6.906 15.5107 7.191 15.5107 7.53825L15.5123 12.309ZM9.77025 12.309C9.76946 12.4763 9.70239 12.6365 9.58375 12.7544C9.4651 12.8723 9.30454 12.9384 9.13725 12.9382C8.9712 12.9369 8.81242 12.87 8.69543 12.7521C8.57843 12.6343 8.51269 12.4751 8.5125 12.309V7.539C8.5125 7.19175 8.79375 6.90675 9.14175 6.90675C9.489 6.90675 9.771 7.19175 9.771 7.539L9.77025 12.309ZM7.305 12.9382H4.91775C4.75064 12.9379 4.59042 12.8716 4.4719 12.7537C4.35339 12.6359 4.28613 12.4761 4.28475 12.309V7.539C4.28475 7.19175 4.56975 6.90675 4.91775 6.90675C5.26575 6.90675 5.547 7.19175 5.547 7.539V11.6797H7.305C7.47189 11.6797 7.63194 11.746 7.74995 11.8641C7.86795 11.9821 7.93425 12.1421 7.93425 12.309C7.93425 12.4759 7.86795 12.6359 7.74995 12.7539C7.63194 12.872 7.47189 12.9382 7.305 12.9382V12.9382ZM24 9.74175C24 4.371 18.6128 0 12 0C5.38725 0 0 4.371 0 9.74175C0 14.5545 4.26975 18.5858 10.035 19.3515C10.4258 19.4333 10.9567 19.6095 11.094 19.9418C11.2147 20.2418 11.172 20.7067 11.133 21.024L10.9688 22.0432C10.9215 22.344 10.7265 23.2275 12.0157 22.6882C13.3087 22.149 18.9338 18.6105 21.453 15.711C23.1758 13.8247 24 11.8867 24 9.74175Z" fill="white"/>
</svg>
