<svg width="20" height="23" viewBox="0 0 20 23" fill="none" xmlns="http://www.w3.org/2000/svg">
<path d="M17.3199 4.99218C17.168 4.91362 17.0201 4.82751 16.8769 4.73418C16.4605 4.4589 16.0788 4.13457 15.7399 3.76818C14.8909 2.79718 14.5739 1.81218 14.4579 1.12318H14.4619C14.3649 0.550176 14.4049 0.180176 14.4119 0.180176H10.5469V15.1232C10.5469 15.3232 10.5469 15.5222 10.5389 15.7182C10.5389 15.7422 10.5359 15.7642 10.5349 15.7912C10.5349 15.8012 10.5349 15.8132 10.5319 15.8242V15.8332C10.4913 16.3692 10.3196 16.887 10.0318 17.3411C9.74412 17.7952 9.34921 18.1716 8.88185 18.4372C8.39428 18.7146 7.84281 18.86 7.28185 18.8592C5.48185 18.8592 4.02185 17.3912 4.02185 15.5782C4.02185 13.7642 5.48185 12.2962 7.28185 12.2962C7.62285 12.2962 7.96185 12.3502 8.28585 12.4562L8.29085 8.52018C7.30687 8.39323 6.30725 8.47164 5.35509 8.75047C4.40294 9.0293 3.51892 9.50249 2.75885 10.1402C2.09271 10.7187 1.53264 11.4091 1.10385 12.1802C0.940853 12.4612 0.324853 13.5922 0.250853 15.4262C0.203853 16.4662 0.516853 17.5462 0.665853 17.9912V18.0012C0.758853 18.2632 1.12285 19.1592 1.71485 19.9142C2.19225 20.5202 2.7563 21.0526 3.38885 21.4942V21.4842L3.39785 21.4942C5.26785 22.7642 7.34285 22.6812 7.34285 22.6812C7.70185 22.6662 8.90485 22.6812 10.2709 22.0342C11.7859 21.3162 12.6479 20.2472 12.6479 20.2472C13.199 19.6083 13.6372 18.8802 13.9439 18.0942C14.2939 17.1742 14.4099 16.0722 14.4099 15.6322V7.70318C14.4569 7.73118 15.0819 8.14418 15.0819 8.14418C15.0819 8.14418 15.9819 8.72118 17.3849 9.09618C18.3909 9.36318 19.7479 9.42018 19.7479 9.42018V5.58318C19.2729 5.63518 18.3079 5.48518 17.3189 4.99318L17.3199 4.99218Z" fill="white"/>
</svg>
