<svg width="25" height="17" viewBox="0 0 25 17" fill="none" xmlns="http://www.w3.org/2000/svg">
<path d="M23.5006 2.93725C23.3647 2.45248 23.1 2.0136 22.7346 1.66725C22.3589 1.31026 21.8984 1.05489 21.3966 0.925252C19.5186 0.430252 11.9946 0.430252 11.9946 0.430252C8.85795 0.394565 5.72205 0.551526 2.60462 0.900252C2.10281 1.03946 1.64318 1.30054 1.26662 1.66025C0.896617 2.01625 0.628617 2.45525 0.488617 2.93625C0.15231 4.748 -0.0110908 6.5876 0.000617183 8.43025C-0.0113828 10.2713 0.151617 12.1103 0.488617 13.9243C0.625617 14.4033 0.892617 14.8403 1.26362 15.1933C1.63462 15.5463 2.09662 15.8013 2.60462 15.9363C4.50762 16.4303 11.9946 16.4303 11.9946 16.4303C15.1353 16.466 18.2752 16.309 21.3966 15.9603C21.8984 15.8306 22.3589 15.5752 22.7346 15.2183C23.0999 14.872 23.3643 14.433 23.4996 13.9483C23.8447 12.1372 24.0125 10.2968 24.0006 8.45325C24.0266 6.60186 23.859 4.75282 23.5006 2.93625V2.93725ZM9.60262 11.8543V5.00725L15.8626 8.43125L9.60262 11.8543Z" fill="white"/>
</svg>
